<svg id="a636d3dd-08ac-440b-acd9-499272ff481d" data-name="Camada 1" xmlns="http://www.w3.org/2000/svg" xmlns:xlink="http://www.w3.org/1999/xlink" viewBox="0 0 42 25"><defs><linearGradient id="f7185652-7333-4283-a234-899fe4d9dc3b" y1="12.24" x2="42" y2="12.24" gradientUnits="userSpaceOnUse"><stop offset="0" stop-color="#262956"/><stop offset="1" stop-color="#223b85"/></linearGradient></defs><path d="M16,5.7l-5.5,13.11H6.86L4.15,8.34a1.42,1.42,0,0,0-.8-1.15A14,14,0,0,0,0,6.08L.08,5.7H5.86A1.58,1.58,0,0,1,7.42,7l1.43,7.59L12.38,5.7ZM30,14.53c0-3.46-4.78-3.65-4.75-5.2,0-.47.46-1,1.44-1.1A6.44,6.44,0,0,1,30,8.82L30.63,6a9.06,9.06,0,0,0-3.17-.58c-3.36,0-5.72,1.78-5.74,4.33,0,1.89,1.69,2.94,3,3.57s1.77,1.06,1.76,1.63c0,.88-1.05,1.27-2,1.29a7.08,7.08,0,0,1-3.48-.83l-.62,2.87a10.23,10.23,0,0,0,3.77.7c3.57,0,5.9-1.76,5.91-4.49m8.86,4.28H42L39.26,5.7h-2.9a1.52,1.52,0,0,0-1.44,1L29.83,18.81h3.56l.71-1.95h4.35Zm-3.79-4.64,1.79-4.93,1,4.93ZM20.8,5.7,18,18.81H14.6L17.4,5.7Z" fill="url(#f7185652-7333-4283-a234-899fe4d9dc3b)"/></svg>