<?xml version="1.0" encoding="UTF-8"?>
<svg width="17px" height="14px" viewBox="0 0 17 14" version="1.1" xmlns="http://www.w3.org/2000/svg" xmlns:xlink="http://www.w3.org/1999/xlink">
    <!-- Generator: Sketch 57.1 (83088) - https://sketch.com -->
    <title>Icons/Interface/Senha invisivel Copy 2</title>
    <desc>Created with Sketch.</desc>
    <defs>
        <path d="M3.98146818,4.20876022 L16.764907,16.7903552 C17.1428598,17.1623404 16.5848821,17.7292696 16.2069292,17.3572845 L13.9529876,15.1373736 C13.9131701,15.243095 13.828814,15.3312434 13.7140462,15.3720835 C12.6973737,15.7338668 11.6125174,15.9216508 10.5,15.9216508 C6.80195276,15.9216508 3.52268351,13.8286075 2.17994213,10.6986707 C2.13698893,10.5985465 2.13698893,10.4851855 2.17994213,10.3850614 C2.81181774,8.91215622 3.89230297,7.63724831 5.2807627,6.71402959 C5.30423668,6.6984212 5.3287641,6.68563418 5.35394502,6.67558805 L3.42349043,4.77568948 C3.0455376,4.40370432 3.60351534,3.83677506 3.98146818,4.20876022 Z M5.72120154,7.37642039 C4.50943013,8.18215499 3.55879857,9.2791683 2.98048618,10.5418941 C4.23756368,13.2885243 7.17839467,15.1261962 10.5,15.1261962 C11.5164445,15.1261962 12.5062975,14.9557316 13.4334721,14.6275947 L11.7518788,12.971599 C11.784062,13.0089246 11.8097996,13.0528982 11.8267518,13.1023743 C11.8979513,13.3101736 11.7872152,13.5363469 11.5794158,13.6075464 C11.2350472,13.7255392 10.8714231,13.7864832 10.5,13.7864832 C8.68505149,13.7864832 7.20971072,12.3344374 7.20971072,10.541866 C7.20971072,10.1790759 7.27034912,9.8238247 7.38777283,9.48710906 C7.46010295,9.27970053 7.68687592,9.17019782 7.89428447,9.24252794 C8.10169301,9.31485805 8.21119571,9.54163104 8.13886559,9.74903957 C8.050694,10.001874 8.00516527,10.2686049 8.00516527,10.541866 C8.00516527,11.8922612 9.12156006,12.9910287 10.5,12.9910287 C10.7834248,12.9910287 11.0599454,12.9446834 11.3215798,12.8550382 C11.4660368,12.8055421 11.6193734,12.8439698 11.7233521,12.9418079 L5.87299582,7.18599687 C5.84461316,7.26119325 5.79323965,7.3285206 5.72120154,7.37642039 Z M10.5,5.16208131 C14.1980472,5.16208131 17.4773165,7.25512458 18.8200579,10.3850614 C18.8630111,10.4851855 18.8630111,10.5985465 18.8200579,10.6986707 C18.153289,12.2529123 16.9875954,13.5852739 15.4905037,14.5168623 C15.3040046,14.6329142 15.0587386,14.5758055 14.9426867,14.3893064 C14.8266348,14.2028074 14.8837434,13.9575413 15.0702425,13.8414894 C16.3802706,13.0263042 17.4078714,11.877335 18.0195138,10.5418379 C16.7624363,7.79520772 13.8216053,5.95753586 10.5,5.95753586 C9.38574278,5.95753586 8.30380801,6.16241854 7.30223011,6.55461835 C7.0976938,6.63471108 6.86695638,6.53382962 6.78686365,6.32929331 C6.70677092,6.124757 6.80765238,5.89401957 7.01218869,5.81392684 C8.10604955,5.38559069 9.2863473,5.16208131 10.5,5.16208131 Z M10.5,7.29724879 C12.3149485,7.29724879 13.7902892,8.7492947 13.7902892,10.541866 C13.7902892,11.1514954 13.6188895,11.7373361 13.3004599,12.2452548 C13.1837828,12.4313633 12.9383265,12.4876487 12.7522179,12.3709716 C12.5661093,12.2542945 12.5098239,12.0088382 12.6265011,11.8227296 C12.8662094,11.4403771 12.9948347,11.0007387 12.9948347,10.541866 C12.9948347,9.19147084 11.8784399,8.09270334 10.5,8.09270334 C10.0590503,8.09270334 9.63554753,8.20503285 9.26169235,8.4155216 C9.07028592,8.52328766 8.82775869,8.45548374 8.71999262,8.2640773 C8.61222656,8.07267086 8.68003048,7.83014364 8.87143692,7.72237757 C9.36374463,7.44519743 9.92153804,7.29724879 10.5,7.29724879 Z" id="path-1"></path>
    </defs>
    <g id="Page-1" stroke="none" stroke-width="1" fill="none" fill-rule="evenodd">
        <g id="Icons/Interface/Senha-invisivel" transform="translate(-2.000000, -4.000000)">
            <mask id="mask-2" fill="white">
                <use xlink:href="#path-1"></use>
            </mask>
            <g id="Combined-Shape"></g>
            <g id="color/marca/Cinza" mask="url(#mask-2)" fill="#676D6F" fill-rule="nonzero">
                <rect id="Rectangle" x="0" y="0" width="21" height="21"></rect>
            </g>
        </g>
    </g>
</svg>