<?xml version="1.0" encoding="UTF-8"?>
<svg width="17px" height="12px" viewBox="0 0 17 12" version="1.1" xmlns="http://www.w3.org/2000/svg" xmlns:xlink="http://www.w3.org/1999/xlink">
    <!-- Generator: Sketch 57.1 (83088) - https://sketch.com -->
    <title>Icons/Interface/Senha visivel</title>
    <desc>Created with Sketch.</desc>
    <defs>
        <path d="M10.1623377,4.69696967 C13.7579703,4.69696967 16.9452513,6.76393641 18.2493906,9.85266104 C18.2891642,9.94686075 18.2891642,10.0531393 18.2493906,10.147339 C16.9452514,13.2360636 13.7579703,15.3030303 10.1623377,15.3030303 C6.56670507,15.3030303 3.37942401,13.2360636 2.07528467,10.147339 C2.03551112,10.0531393 2.03551112,9.94686075 2.07528467,9.85266104 C3.37942401,6.7639364 6.56670508,4.69696967 10.1623377,4.69696967 Z M10.1623377,5.45454543 C6.92621523,5.45454543 4.0602923,7.27615426 2.83737152,10 C4.06029229,12.7238457 6.92621522,14.5454546 10.1623377,14.5454546 C13.3984601,14.5454546 16.2643831,12.7238457 17.4873038,10 C16.2643831,7.27615426 13.3984601,5.45454543 10.1623377,5.45454543 Z M10.1623377,6.80735929 C11.9247832,6.80735929 13.3549784,8.23755447 13.3549784,10 C13.3549784,11.7624455 11.9247832,13.1926407 10.1623377,13.1926407 C8.39989213,13.1926407 6.96969695,11.7624455 6.96969695,10 C6.96969695,8.23755447 8.39989213,6.80735929 10.1623377,6.80735929 Z M10.1623377,7.56493506 C8.81828967,7.56493506 7.72727272,8.65595201 7.72727272,10 C7.72727272,11.344048 8.81828967,12.4350649 10.1623377,12.4350649 C11.5063856,12.4350649 12.5974026,11.344048 12.5974026,10 C12.5974026,8.65595201 11.5063856,7.56493506 10.1623377,7.56493506 Z" id="path-1"></path>
    </defs>
    <g id="Page-1" stroke="none" stroke-width="1" fill="none" fill-rule="evenodd">
        <g id="Icons/Interface/Senha-visivel" transform="translate(-2.000000, -4.000000)">
            <mask id="mask-2" fill="white">
                <use xlink:href="#path-1"></use>
            </mask>
            <g id="Combined-Shape" fill-rule="nonzero"></g>
            <g id="color/marca/Cinza" mask="url(#mask-2)" fill="#676D6F" fill-rule="nonzero">
                <rect id="Rectangle" x="0" y="0" width="20" height="20"></rect>
            </g>
        </g>
    </g>
</svg>