<svg width="42" height="25" viewBox="0 0 42 25" fill="none" xmlns="http://www.w3.org/2000/svg">
<rect x="0.25" y="0.25" width="41.5" height="24.5" fill="white" stroke="#32BCAD" stroke-width="0.5"/>
<path d="M26.0642 16.7983C25.3628 16.7983 24.703 16.5252 24.207 16.0294L21.5254 13.3477C21.3371 13.159 21.0089 13.1595 20.8207 13.3477L18.1293 16.0392C17.6332 16.535 16.9735 16.8081 16.2721 16.8081H15.7436L19.14 20.2045C20.2006 21.2651 21.9204 21.2651 22.9812 20.2045L26.3872 16.7983H26.0642Z" fill="#32BCAD"/>
<path d="M16.272 7.31288C16.9735 7.31288 17.6332 7.586 18.1292 8.08179L20.8207 10.7737C21.0145 10.9676 21.331 10.9683 21.5253 10.7735L24.207 8.0916C24.703 7.59581 25.3627 7.32269 26.0642 7.32269H26.3872L22.9812 3.91665C21.9204 2.85591 20.2006 2.85591 19.14 3.91665L15.7437 7.31289L16.272 7.31288Z" fill="#32BCAD"/>
<path d="M29.2045 10.1399L27.1462 8.08162C27.1009 8.09977 27.0518 8.1111 27 8.1111H26.0642C25.5803 8.1111 25.1067 8.30734 24.7648 8.64947L22.0833 11.3311C21.8323 11.582 21.5026 11.7076 21.1732 11.7076C20.8434 11.7076 20.5139 11.582 20.263 11.3313L17.5714 8.63967C17.2295 8.29746 16.7559 8.1013 16.272 8.1013H15.1213C15.0722 8.1013 15.0264 8.08973 14.9831 8.07343L12.9166 10.1399C11.8559 11.2006 11.8559 12.9203 12.9166 13.9811L14.983 16.0475C15.0264 16.0312 15.0722 16.0196 15.1213 16.0196H16.272C16.7559 16.0196 17.2295 15.8234 17.5714 15.4813L20.2628 12.7899C20.7493 12.3038 21.5973 12.3036 22.0833 12.7901L24.7648 15.4715C25.1067 15.8136 25.5803 16.0099 26.0642 16.0099H27C27.0518 16.0099 27.1009 16.0212 27.1462 16.0393L29.2045 13.9811C30.2652 12.9203 30.2652 11.2006 29.2045 10.1399" fill="#32BCAD"/>
</svg>
